<svg width="44" height="50" viewBox="0 0 44 50" fill="none" xmlns="http://www.w3.org/2000/svg">
<g clip-path="url(#clip0_513_826)">
<path d="M39.1875 3.125H4.8125C2.22461 3.125 0.125 5.22461 0.125 7.8125V42.1875C0.125 44.7754 2.22461 46.875 4.8125 46.875H39.1875C41.7754 46.875 43.875 44.7754 43.875 42.1875V7.8125C43.875 5.22461 41.7754 3.125 39.1875 3.125ZM23.9336 37.2461C23.9336 41.5039 21.4336 43.4473 17.791 43.4473C14.5 43.4473 12.5957 41.748 11.6191 39.6875L14.9688 37.666C15.6133 38.8086 16.1992 39.7754 17.6152 39.7754C18.9629 39.7754 19.8223 39.248 19.8223 37.1875V23.2129H23.9336V37.2461ZM33.6602 43.4473C29.8418 43.4473 27.3711 41.6309 26.1699 39.248L29.5195 37.3145C30.3984 38.75 31.5508 39.8145 33.5723 39.8145C35.2715 39.8145 36.3652 38.9648 36.3652 37.7832C36.3652 36.377 35.252 35.8789 33.3672 35.0488L32.3418 34.6094C29.373 33.3496 27.4102 31.7578 27.4102 28.4082C27.4102 25.3223 29.7637 22.9785 33.4258 22.9785C36.043 22.9785 37.918 23.8867 39.2656 26.2695L36.0625 28.3203C35.3594 27.0605 34.5977 26.5625 33.416 26.5625C32.2148 26.5625 31.4531 27.3242 31.4531 28.3203C31.4531 29.5508 32.2148 30.0488 33.9824 30.8203L35.0078 31.2598C38.5039 32.7539 40.4668 34.2871 40.4668 37.7246C40.4668 41.416 37.5566 43.4473 33.6602 43.4473Z" fill="#ACCED2"/>
</g>
<defs>
<clipPath id="clip0_513_826">
<rect width="43.75" height="50" fill="white" transform="translate(0.125)"/>
</clipPath>
</defs>
</svg>
