<svg width="50" height="50" viewBox="0 0 50 50" fill="none" xmlns="http://www.w3.org/2000/svg">
<path d="M24.9998 21.0625C27.1457 21.0625 28.8957 22.8125 28.8957 25C28.8957 27.0833 27.1457 28.8542 24.9998 28.8542C22.854 28.8542 21.104 27.0833 21.104 25C21.104 22.8125 22.854 21.0625 24.9998 21.0625ZM15.354 41.6667C16.6665 42.4583 19.5415 41.25 22.854 38.125C21.7707 36.8958 20.7082 35.5625 19.7082 34.1667C18.0295 34.0048 16.3605 33.7545 14.7082 33.4167C13.6457 37.875 14.0415 40.9375 15.354 41.6667ZM16.8332 29.7083L16.229 28.6458C15.9998 29.25 15.7707 29.8542 15.6248 30.4375C16.1873 30.5625 16.8123 30.6667 17.4582 30.7708L16.8332 29.7083ZM30.4582 28.125L32.1457 25L30.4582 21.875C29.8332 20.7708 29.1665 19.7917 28.5623 18.8125C27.4373 18.75 26.2498 18.75 24.9998 18.75C23.7498 18.75 22.5623 18.75 21.4373 18.8125C20.8332 19.7917 20.1665 20.7708 19.5415 21.875L17.854 25L19.5415 28.125C20.1665 29.2292 20.8332 30.2083 21.4373 31.1875C22.5623 31.25 23.7498 31.25 24.9998 31.25C26.2498 31.25 27.4373 31.25 28.5623 31.1875C29.1665 30.2083 29.8332 29.2292 30.4582 28.125ZM24.9998 14.125C24.604 14.5833 24.1873 15.0625 23.7707 15.625H26.229C25.8123 15.0625 25.3957 14.5833 24.9998 14.125ZM24.9998 35.875C25.3957 35.4167 25.8123 34.9375 26.229 34.375H23.7707C24.1873 34.9375 24.604 35.4167 24.9998 35.875ZM34.6248 8.33333C33.3332 7.54166 30.4582 8.74999 27.1457 11.875C28.229 13.1042 29.2915 14.4375 30.2915 15.8333C31.9998 16 33.6873 16.25 35.2915 16.5833C36.354 12.125 35.9582 9.06249 34.6248 8.33333ZM33.1665 20.2917L33.7707 21.3542C33.9998 20.75 34.229 20.1458 34.3748 19.5625C33.8123 19.4375 33.1873 19.3333 32.5415 19.2292L33.1665 20.2917ZM36.1873 5.60416C39.2498 7.35416 39.5832 11.9583 38.2915 17.3333C43.5832 18.8958 47.3957 21.4792 47.3957 25C47.3957 28.5208 43.5832 31.1042 38.2915 32.6667C39.5832 38.0417 39.2498 42.6458 36.1873 44.3958C33.1457 46.1458 28.9998 44.1458 24.9998 40.3333C20.9998 44.1458 16.854 46.1458 13.7915 44.3958C10.7498 42.6458 10.4165 38.0417 11.7082 32.6667C6.4165 31.1042 2.604 28.5208 2.604 25C2.604 21.4792 6.4165 18.8958 11.7082 17.3333C10.4165 11.9583 10.7498 7.35416 13.7915 5.60416C16.854 3.85416 20.9998 5.85416 24.9998 9.66666C28.9998 5.85416 33.1457 3.85416 36.1873 5.60416ZM35.5832 25C36.2915 26.5625 36.9165 28.125 37.4373 29.7083C41.8123 28.3958 44.2707 26.5208 44.2707 25C44.2707 23.4792 41.8123 21.6042 37.4373 20.2917C36.9165 21.875 36.2915 23.4375 35.5832 25ZM14.4165 25C13.7082 23.4375 13.0832 21.875 12.5623 20.2917C8.18734 21.6042 5.729 23.4792 5.729 25C5.729 26.5208 8.18734 28.3958 12.5623 29.7083C13.0832 28.125 13.7082 26.5625 14.4165 25ZM33.1665 29.7083L32.5415 30.7708C33.1873 30.6667 33.8123 30.5625 34.3748 30.4375C34.229 29.8542 33.9998 29.25 33.7707 28.6458L33.1665 29.7083ZM27.1457 38.125C30.4582 41.25 33.3332 42.4583 34.6248 41.6667C35.9582 40.9375 36.354 37.875 35.2915 33.4167C33.6873 33.75 31.9998 34 30.2915 34.1667C29.2915 35.5625 28.229 36.8958 27.1457 38.125ZM16.8332 20.2917L17.4582 19.2292C16.8123 19.3333 16.1873 19.4375 15.6248 19.5625C15.7707 20.1458 15.9998 20.75 16.229 21.3542L16.8332 20.2917ZM22.854 11.875C19.5415 8.74999 16.6665 7.54166 15.354 8.33333C14.0415 9.06249 13.6457 12.125 14.7082 16.5833C16.3605 16.2455 18.0295 15.9952 19.7082 15.8333C20.7082 14.4375 21.7707 13.1042 22.854 11.875Z" fill="#ACCED2"/>
</svg>
