<svg width="50" height="50" viewBox="0 0 50 50" fill="none" xmlns="http://www.w3.org/2000/svg">
<g clip-path="url(#clip0_513_896)">
<path fill-rule="evenodd" clip-rule="evenodd" d="M31.2499 4.16666C32.9426 4.16656 34.5952 4.68195 35.9878 5.64424C37.3804 6.60653 38.4469 7.9701 39.0454 9.55348C39.6439 11.1369 39.7461 12.865 39.3382 14.5078C38.9304 16.1507 38.0319 17.6304 36.7624 18.75C38.3152 20.1163 39.3044 22.0112 39.5377 24.0663C39.771 26.1214 39.2317 28.1899 38.0247 29.8694C36.8177 31.549 35.0292 32.7197 33.007 33.1539C30.9847 33.5882 28.8733 33.2548 27.0832 32.2187V37.5C27.0831 38.8925 26.7341 40.2627 26.0681 41.4856C25.402 42.7084 24.4402 43.7449 23.2704 44.5002C22.1006 45.2556 20.7602 45.7058 19.3716 45.8097C17.983 45.9135 16.5905 45.6678 15.3213 45.0949C14.0522 44.522 12.9468 43.6402 12.1062 42.5301C11.2656 41.4199 10.7166 40.1169 10.5094 38.7399C10.3021 37.363 10.4432 35.956 10.9197 34.6476C11.3963 33.3392 12.1931 32.1711 13.2374 31.25C12.3507 30.4679 11.6407 29.5062 11.1543 28.4286C10.668 27.351 10.4165 26.1823 10.4165 25C10.4165 23.8177 10.668 22.649 11.1543 21.5714C11.6407 20.4938 12.3507 19.5321 13.2374 18.75C11.9678 17.6304 11.0694 16.1507 10.6615 14.5078C10.2537 12.865 10.3558 11.1369 10.9543 9.55348C11.5528 7.9701 12.6194 6.60653 14.0119 5.64424C15.4045 4.68195 17.0571 4.16656 18.7499 4.16666H31.2499ZM22.9165 33.3333H18.7499C17.9258 33.3333 17.1202 33.5777 16.435 34.0355C15.7498 34.4934 15.2157 35.1441 14.9004 35.9055C14.585 36.6668 14.5025 37.5046 14.6633 38.3129C14.824 39.1211 15.2209 39.8636 15.8036 40.4463C16.3863 41.029 17.1287 41.4258 17.937 41.5866C18.7452 41.7474 19.583 41.6649 20.3444 41.3495C21.1057 41.0341 21.7565 40.5001 22.2143 39.8149C22.6722 39.1297 22.9165 38.3241 22.9165 37.5V33.3333ZM22.9165 20.8333H18.7499C17.6448 20.8333 16.585 21.2723 15.8036 22.0537C15.0222 22.8351 14.5832 23.8949 14.5832 25C14.5832 26.1051 15.0222 27.1649 15.8036 27.9463C16.585 28.7277 17.6448 29.1667 18.7499 29.1667H22.9165V20.8333ZM31.2499 20.8333C30.1448 20.8333 29.085 21.2723 28.3036 22.0537C27.5222 22.8351 27.0832 23.8949 27.0832 25C27.0832 26.1051 27.5222 27.1649 28.3036 27.9463C29.085 28.7277 30.1448 29.1667 31.2499 29.1667C32.3549 29.1667 33.4147 28.7277 34.1961 27.9463C34.9775 27.1649 35.4165 26.1051 35.4165 25C35.4165 23.8949 34.9775 22.8351 34.1961 22.0537C33.4147 21.2723 32.3549 20.8333 31.2499 20.8333ZM31.2499 8.33333H27.0832V16.6667H31.2499C32.3311 16.6715 33.3718 16.2559 34.1523 15.5075C34.9327 14.7592 35.3917 13.7368 35.4322 12.6564C35.4728 11.5759 35.0918 10.522 34.3697 9.71725C33.6476 8.91252 32.6409 8.42 31.5624 8.34375L31.2499 8.33333ZM22.9165 8.33333H18.7499C17.6448 8.33333 16.585 8.77232 15.8036 9.55372C15.0222 10.3351 14.5832 11.3949 14.5832 12.5C14.5832 13.6051 15.0222 14.6649 15.8036 15.4463C16.585 16.2277 17.6448 16.6667 18.7499 16.6667H22.9165V8.33333Z" fill="#ACCED2"/>
</g>
<defs>
<clipPath id="clip0_513_896">
<rect width="50" height="50" fill="white"/>
</clipPath>
</defs>
</svg>
