<svg width="50" height="50" viewBox="0 0 50 50" fill="none" xmlns="http://www.w3.org/2000/svg">
<path d="M26.8481 2.8375C26.2879 2.50815 25.65 2.33449 25.0002 2.33449C24.3504 2.33449 23.7124 2.50815 23.1522 2.8375L7.00641 12.3333C6.45883 12.6553 6.00486 13.1148 5.68951 13.6662C5.37415 14.2176 5.20833 14.8419 5.2085 15.4771V34.5229C5.2085 35.8146 5.89183 37.0104 7.00641 37.6646L12.471 40.8792C15.2481 42.5167 18.7502 40.5125 18.7502 37.2917V16.1396H14.5835V37.2896L9.37516 34.225V15.775L25.0002 6.58334L40.6252 15.775V34.225L25.0002 43.4167L21.3168 41.25L19.2043 44.8396L23.1522 47.1625C23.7124 47.4919 24.3504 47.6655 25.0002 47.6655C25.65 47.6655 26.2879 47.4919 26.8481 47.1625L42.9939 37.6646C43.5412 37.3428 43.995 36.8837 44.3103 36.3326C44.6256 35.7816 44.7916 35.1578 44.7918 34.5229V15.4771C44.7916 14.8422 44.6256 14.2184 44.3103 13.6674C43.995 13.1163 43.5412 12.6572 42.9939 12.3354L26.8481 2.8375ZM29.1668 15.625C26.3272 15.625 24.3147 16.3563 23.021 17.6458C22.044 18.6175 21.4919 19.9367 21.4856 21.3146C21.4856 22.4708 21.8127 23.5188 22.4897 24.3854C23.1418 25.2188 24.0002 25.7375 24.8231 26.0729C26.3231 26.6917 28.1981 26.8938 29.7064 27.0542L29.8877 27.075C31.6189 27.2625 32.9168 27.4229 33.8043 27.7938C34.2064 27.9604 34.371 28.1146 34.4397 28.2042C34.4835 28.2625 34.5689 28.3917 34.5689 28.7458C34.5689 29.2958 34.3814 29.65 33.7918 29.9854C33.0689 30.3958 31.7918 30.7083 29.8689 30.7083C27.9627 30.7083 26.6335 30.3542 25.8731 29.8292C25.2835 29.4208 24.8481 28.7938 24.9627 27.4333L20.8106 27.0854C20.5856 29.7708 21.5585 31.9104 23.5022 33.2563C25.2752 34.4854 27.6064 34.875 29.8689 34.875C32.1127 34.875 34.2272 34.5312 35.8543 33.6042C37.6168 32.6042 38.7356 30.9333 38.7356 28.7458C38.7356 27.5854 38.4127 26.5354 37.7418 25.6625C37.096 24.8208 36.2377 24.2958 35.4127 23.95C33.896 23.3146 31.996 23.1104 30.4793 22.9479L30.3335 22.9313C28.5981 22.7438 27.3002 22.5875 26.4064 22.2208C26.0022 22.0542 25.8377 21.9042 25.7752 21.8208C25.7335 21.7708 25.6522 21.6542 25.6522 21.3146C25.6522 21.1542 25.7002 20.8583 25.9647 20.5958C26.2189 20.3417 27.0043 19.7917 29.1668 19.7917C31.2293 19.7917 32.4314 20.0104 33.1189 20.4167C33.5668 20.6833 34.0522 21.1729 34.1189 22.7771L38.2814 22.6104C38.1772 20.0146 37.2272 18.0104 35.2439 16.8354C33.5002 15.7979 31.271 15.625 29.1668 15.625Z" fill="#ACCED2"/>
</svg>
