<svg width="50" height="50" viewBox="0 0 50 50" fill="none" xmlns="http://www.w3.org/2000/svg">
<g clip-path="url(#clip0_513_839)">
<path d="M29.4396 0.0979156C29.0792 0.0979156 28.7438 0.174999 28.4334 0.279166C29.0917 0.716666 29.4542 1.3 29.6334 1.95833C29.648 2.04792 29.673 2.1125 29.6855 2.20208C29.6989 2.27929 29.7079 2.35719 29.7126 2.43542C29.7626 3.57083 29.4146 3.71458 29.1709 4.38542C28.7959 5.25 28.9001 6.17917 29.3501 6.92708C29.3907 7.02766 29.4424 7.12339 29.5042 7.2125C29.0146 3.94583 31.7396 3.45625 32.2417 2.43542C32.2813 1.54375 31.5459 0.949999 30.9646 0.537499C30.5079 0.250476 29.9791 0.0987818 29.4396 0.099999V0.0979156ZM33.5459 0.833332C33.4959 1.13125 33.5334 1.05417 33.5209 1.20833C33.5084 1.3125 33.5084 1.44167 33.4959 1.54375C33.4688 1.64792 33.4438 1.75208 33.4042 1.85417C33.3778 1.95833 33.3431 2.0618 33.3001 2.16458L33.1605 2.46042C33.1188 2.5125 33.0959 2.56458 33.0563 2.61667L32.9792 2.73125C32.918 2.81983 32.8534 2.90601 32.7855 2.98958C32.7084 3.06875 32.6438 3.15833 32.5521 3.22292V3.23542C32.4751 3.3 32.398 3.37708 32.3063 3.44375C32.0355 3.65 31.7271 3.80417 31.4417 3.99792C31.3521 4.06042 31.2605 4.11458 31.1834 4.19167C31.0963 4.25399 31.0141 4.32295 30.9376 4.39792C30.848 4.475 30.7834 4.55208 30.7063 4.64375C30.6417 4.72083 30.5646 4.81042 30.5126 4.90208C30.4486 4.98996 30.3882 5.08031 30.3313 5.17292C30.2792 5.27708 30.2417 5.36667 30.1896 5.46875C30.1501 5.57292 30.1126 5.6625 30.0855 5.76667C30.0513 5.87306 30.0214 5.98079 29.9959 6.08958C29.9834 6.14167 29.9834 6.20625 29.9709 6.25625C29.9563 6.30833 29.9563 6.36042 29.9438 6.4125C29.9438 6.51667 29.9313 6.63125 29.9313 6.73542C29.9285 6.8118 29.9327 6.88889 29.9438 6.96667C29.9438 7.06944 29.957 7.17708 29.9834 7.28958C29.9973 7.39375 30.0181 7.49792 30.0459 7.60208C30.0876 7.70417 30.1126 7.80625 30.1501 7.91042C30.1771 7.97292 30.2146 8.03958 30.2417 8.09167L27.2709 6.94167C26.7688 6.8 26.2771 6.67083 25.773 6.55417L24.9605 6.36042C24.1827 6.20625 23.3994 6.09028 22.6105 6.0125C22.5834 6.0125 22.5709 6 22.5459 6C21.2152 5.86583 19.8754 5.8484 18.5417 5.94792C17.7542 6 16.9667 6.10208 16.1792 6.23125C15.5942 6.33293 15.0126 6.45383 14.4355 6.59375L13.8542 6.74792C13.6626 6.825 13.4792 6.91458 13.3001 6.99375L12.873 7.1875C12.848 7.2 12.823 7.2 12.8105 7.2125C12.6792 7.27708 12.5646 7.32917 12.448 7.39375C12.2806 7.46844 12.1165 7.55047 11.9563 7.63958C11.8667 7.67708 11.7771 7.72917 11.698 7.76875L11.5834 7.83125C11.4653 7.89792 11.3528 7.96319 11.2459 8.02708C11.1403 8.08714 11.0375 8.15179 10.9376 8.22083C10.8459 8.28333 10.7563 8.33542 10.6792 8.4C10.6667 8.41458 10.6521 8.41458 10.6396 8.42708C10.5626 8.47917 10.473 8.54375 10.3938 8.60833L10.3688 8.63333L10.1751 8.7875C10.1501 8.80208 10.123 8.82708 10.098 8.83958C10.0334 8.89167 9.96881 8.95625 9.90423 9.00625C9.89173 9.03333 9.86465 9.04792 9.85215 9.05833C9.77506 9.1375 9.69798 9.20208 9.6209 9.27917C9.60631 9.27917 9.60631 9.29167 9.59381 9.30417C9.51393 9.37479 9.43679 9.44846 9.36256 9.525C9.34798 9.5375 9.34798 9.55 9.33548 9.55C9.26854 9.61722 9.20392 9.6867 9.14173 9.75833C9.11673 9.78333 9.07923 9.80833 9.05215 9.83333C8.98465 9.91668 8.91082 9.99469 8.83131 10.0667C8.81881 10.0917 8.79381 10.1062 8.78131 10.1292C8.67715 10.2333 8.58756 10.3375 8.4834 10.4417L8.4459 10.4792C8.23756 10.7 8.01881 10.9187 7.78548 11.1125C7.55215 11.3208 7.31117 11.5104 7.06256 11.6812C6.56874 12.0335 6.03608 12.3278 5.47506 12.5583C5.20423 12.675 4.91881 12.7792 4.63548 12.8687C4.09381 12.9854 3.53756 13.2042 3.06048 13.2437C2.95631 13.2437 2.84173 13.2687 2.73756 13.2812L2.41465 13.3583L2.10423 13.475C2.00006 13.5167 1.89728 13.5639 1.7959 13.6167C1.70423 13.6812 1.60215 13.7333 1.51048 13.7979C1.4185 13.8644 1.3321 13.9382 1.25215 14.0187C1.16256 14.0812 1.0709 14.1729 0.993812 14.25C0.916729 14.3396 0.839646 14.4167 0.775062 14.5083C0.710479 14.6125 0.633396 14.7021 0.581312 14.8062C0.512776 14.8996 0.452149 14.9986 0.400062 15.1021C0.347979 15.2187 0.295896 15.3229 0.258396 15.4375C0.219507 15.5444 0.180618 15.6562 0.141729 15.7729C0.116729 15.8771 0.0896458 15.9812 0.0792291 16.0854C0.0792291 16.0958 0.0646458 16.1104 0.0646458 16.1229C0.0396458 16.2396 0.0396458 16.3937 0.0250625 16.4708C0.0125625 16.5625 6.24773e-05 16.6375 6.24773e-05 16.7292C-0.00207885 16.9538 0.0508533 17.1755 0.154229 17.375V17.3875C0.195896 17.4653 0.243813 17.5431 0.297979 17.6208C0.34659 17.6986 0.402146 17.7757 0.464646 17.8521C0.529229 17.9167 0.606312 17.9958 0.685479 18.0604C0.761333 18.1353 0.842823 18.2043 0.929229 18.2667C1.23965 18.5375 1.31673 18.6271 1.71673 18.8333C1.78131 18.8729 1.8459 18.8979 1.92506 18.9375C1.93756 18.9375 1.95006 18.95 1.96256 18.95C1.96256 18.9771 1.96256 18.9896 1.97506 19.0146C2.00577 19.2274 2.06172 19.4358 2.14173 19.6354C2.1834 19.7125 2.2084 19.7896 2.2459 19.8667C2.25978 19.8944 2.27367 19.916 2.28756 19.9312C2.33756 20.0354 2.38965 20.125 2.43965 20.2167L2.6334 20.4875C2.69798 20.5646 2.77715 20.6542 2.85423 20.7333C2.93131 20.8125 3.0084 20.875 3.10006 20.9521C3.10006 20.9521 3.11256 20.9646 3.12506 20.9646C3.20145 21.0312 3.27923 21.0917 3.3584 21.1458C3.4483 21.2088 3.54304 21.2645 3.64173 21.3125C3.73131 21.3646 3.83548 21.4167 3.93756 21.4562C4.02162 21.4917 4.10792 21.5217 4.1959 21.5458C4.21048 21.5583 4.22298 21.5583 4.24798 21.5708C4.30006 21.5854 4.36465 21.5979 4.41465 21.6104C4.37715 22.3083 4.36465 22.9646 4.46881 23.1979C4.5834 23.4562 5.15215 22.6687 5.71881 21.7646C5.64381 22.6562 5.59173 23.7021 5.71881 24.0125C5.86256 24.3354 6.63548 23.3271 7.3084 22.2167C16.4646 20.1 24.8188 26.425 25.6959 35.3625C25.5292 33.9667 23.8105 33.1937 23.023 33.3875C22.6355 34.3417 21.9771 35.5687 20.9188 36.3312C21.0084 35.4771 20.9709 34.6021 20.7896 33.7479C20.501 34.9371 19.954 36.0481 19.1876 37.0021C17.9626 37.0917 16.7355 36.4979 16.0896 35.6062C16.0376 35.5687 16.0251 35.4917 15.9855 35.4396C15.9452 35.3493 15.9105 35.259 15.8813 35.1687C15.8435 35.0824 15.8175 34.9913 15.8042 34.8979C15.7931 34.809 15.789 34.7139 15.7917 34.6125V34.4187C15.8072 34.3271 15.8288 34.2367 15.8563 34.1479C15.8799 34.059 15.9105 33.9687 15.948 33.8771C15.998 33.7875 16.0376 33.6958 16.1021 33.6062C16.3209 32.9854 16.3209 32.4812 15.9209 32.1854C15.8419 32.1369 15.7598 32.0938 15.6751 32.0562C15.6251 32.0437 15.5605 32.0187 15.5084 32.0042L15.4042 31.9667C15.3155 31.9391 15.225 31.9175 15.1334 31.9021C15.0453 31.877 14.9542 31.8637 14.8626 31.8625C14.7688 31.8477 14.6741 31.8394 14.5792 31.8375C14.5146 31.8375 14.4501 31.85 14.3855 31.85C14.289 31.8499 14.1929 31.8632 14.1001 31.8896C14.0112 31.9007 13.9209 31.9174 13.8292 31.9396C13.737 31.9639 13.6465 31.9945 13.5584 32.0312C13.4688 32.0687 13.3917 32.1083 13.3001 32.1479C13.223 32.1854 13.1459 32.2375 13.0542 32.2771C10.0459 34.2396 11.8417 38.8354 13.8938 40.1667C13.1188 40.3083 12.3313 40.475 12.1126 40.6437L12.0855 40.6687C12.641 41.0021 13.2223 41.291 13.8292 41.5354C14.6563 41.8062 15.5334 42.05 15.9209 42.1542V42.1667C16.9908 42.3863 18.0848 42.4647 19.1751 42.4C24.8959 42 29.5834 37.6479 30.4355 31.9146L30.5126 32.25C30.5521 32.4833 30.6021 32.7292 30.6292 32.9729V32.9854C30.6514 33.1035 30.6688 33.216 30.6813 33.3229V33.3729C30.6952 33.491 30.7035 33.6035 30.7063 33.7104C30.7202 33.8521 30.7285 33.9937 30.7313 34.1354V34.3437C30.7313 34.4062 30.7459 34.4833 30.7459 34.5479C30.7459 34.6271 30.7313 34.7042 30.7313 34.7812V34.9625C30.7313 35.0521 30.7188 35.1292 30.7188 35.2208C30.7216 35.2708 30.7174 35.3264 30.7063 35.3875C30.7063 35.4792 30.6938 35.5687 30.6938 35.6729C30.6841 35.7104 30.6799 35.7486 30.6813 35.7875L30.6396 36.0854C30.641 36.1243 30.6376 36.1632 30.6292 36.2021C30.6146 36.3312 30.5896 36.4479 30.5771 36.5771V36.6021L30.5001 36.9646V37.0021L30.423 37.35C30.423 37.3646 30.4084 37.3917 30.4084 37.4021C30.3836 37.52 30.3537 37.6368 30.3188 37.7521V37.7896C30.2771 37.916 30.2424 38.0368 30.2146 38.1521C30.2035 38.166 30.1994 38.1743 30.2021 38.1771L30.0855 38.5646C30.0355 38.6937 29.9959 38.8104 29.9438 38.9396C29.8917 39.0687 29.8542 39.1979 29.8021 39.3146C29.7501 39.4437 29.698 39.5583 29.648 39.6896H29.6334C29.5834 39.8042 29.5292 39.9333 29.4667 40.05L29.4271 40.1396C29.4146 40.1521 29.4146 40.1667 29.4021 40.1792C28.546 41.8874 27.3034 43.3726 25.773 44.5167C25.6688 44.5812 25.5667 44.6604 25.4626 44.7375C25.4376 44.7625 25.4001 44.775 25.373 44.8C25.2803 44.8679 25.1859 44.9332 25.0896 44.9958L25.1271 45.0729H25.1417L25.6834 44.9958H25.6959C26.0306 44.9417 26.366 44.8812 26.7021 44.8146C26.7938 44.8021 26.8959 44.775 26.9876 44.75L27.1688 44.7104C27.2584 44.6979 27.348 44.6729 27.4396 44.6604C27.5167 44.6333 27.5938 44.6187 27.6709 44.5958C28.9626 44.2833 30.2146 43.8583 31.4167 43.3562C29.3431 46.1846 26.5825 48.4375 23.3959 49.9021C24.8834 49.7979 26.3667 49.5542 27.8001 49.1396C32.9883 47.6149 37.3702 44.1135 40.0021 39.3896C39.47 42.3796 38.2841 45.2151 36.5292 47.6937C37.7803 46.8677 38.9366 45.9063 39.9771 44.8271C42.8701 41.8114 44.7681 37.9807 45.4146 33.8521C45.8521 35.8937 45.9813 37.9979 45.7896 40.075C55.1105 27.0729 46.5626 13.5917 42.9855 10.0417C42.973 10.0146 42.9605 10.0021 42.9605 9.97708C42.948 9.98958 42.948 9.98958 42.948 10.0021C42.948 9.98958 42.948 9.98958 42.9334 9.97708C42.9306 10.1299 42.9223 10.2847 42.9084 10.4417C42.8729 10.7309 42.8298 11.0192 42.7792 11.3062C42.7167 11.5896 42.6376 11.875 42.5605 12.1604C42.4688 12.4312 42.3667 12.7146 42.248 12.9854C42.1306 13.2532 42.002 13.5159 41.8626 13.7729C41.572 14.2776 41.2396 14.7571 40.8688 15.2062C40.6751 15.4375 40.4688 15.6437 40.2605 15.8521C40.1387 15.9634 40.0136 16.0711 39.8855 16.175L39.5896 16.4333C39.3577 16.6133 39.1164 16.7809 38.8667 16.9354C38.6205 17.0953 38.366 17.242 38.1042 17.375C37.8334 17.5014 37.5626 17.6222 37.2917 17.7375C36.74 17.9469 36.1693 18.1024 35.5876 18.2021C35.2896 18.2542 34.9938 18.2792 34.7084 18.3062C34.5024 18.3207 34.2961 18.329 34.0896 18.3312C33.796 18.3263 33.5027 18.3089 33.2105 18.2792C32.9154 18.2569 32.6223 18.2138 32.3334 18.15C32.0404 18.0978 31.7514 18.0247 31.4688 17.9312H31.4542C31.7396 17.9042 32.023 17.8792 32.3084 17.8271C32.8898 17.7262 33.4604 17.5706 34.0126 17.3625C34.2959 17.2583 34.5667 17.1292 34.8251 17C35.0959 16.8708 35.3417 16.7292 35.6001 16.575C35.8473 16.4097 36.0883 16.2375 36.323 16.0583C36.5563 15.8778 36.7758 15.684 36.9813 15.4771C37.2001 15.2833 37.3938 15.0646 37.5876 14.8437C37.782 14.6118 37.9626 14.3799 38.1292 14.1479C38.1563 14.1083 38.1834 14.0562 38.2084 14.0187C38.3403 13.8104 38.4653 13.6035 38.5834 13.3979C38.8677 12.8838 39.1008 12.343 39.2792 11.7833C39.3709 11.5125 39.4355 11.2292 39.5001 10.9437C39.5521 10.6479 39.6042 10.3646 39.6292 10.0792C39.6542 9.78333 39.6813 9.48542 39.6813 9.20208C39.6813 8.99375 39.6667 8.7875 39.6542 8.58125C39.6281 8.29208 39.5934 8.00376 39.5501 7.71667C39.4985 7.42588 39.4345 7.13743 39.3584 6.85208C39.2667 6.58125 39.1771 6.29583 39.073 6.025C38.9688 5.75417 38.8417 5.48333 38.7126 5.225C38.5709 4.96528 38.4244 4.71111 38.273 4.4625C38.1079 4.22126 37.9356 3.98505 37.7563 3.75417C37.5646 3.53194 37.3667 3.3118 37.1626 3.09375C37.0538 2.98301 36.9419 2.87533 36.8271 2.77083C36.241 2.31667 35.6424 1.89514 35.0313 1.50625C34.9483 1.45727 34.862 1.41411 34.773 1.37708C34.3901 1.14223 33.9774 0.957956 33.5459 0.833332Z" fill="#ACCED2"/>
</g>
<defs>
<clipPath id="clip0_513_839">
<rect width="50" height="50" fill="white"/>
</clipPath>
</defs>
</svg>
