<svg width="50" height="50" viewBox="0 0 50 50" fill="none" xmlns="http://www.w3.org/2000/svg">
<g clip-path="url(#clip0_513_890)">
<path d="M25.002 10C18.3353 10 14.1686 13.3333 12.502 20C15.002 16.6667 17.9186 15.4167 21.252 16.25C23.154 16.725 24.5124 18.1042 26.0186 19.6333C28.4707 22.1208 31.3061 25 37.502 25C44.1686 25 48.3353 21.6667 50.002 15C47.5019 18.3333 44.5853 19.5833 41.252 18.75C39.3499 18.275 37.9915 16.8958 36.4853 15.3667C34.0353 12.8792 31.1999 10 25.002 10ZM12.502 25C5.83529 25 1.66862 28.3333 0.00195312 35C2.50195 31.6667 5.41862 30.4167 8.75195 31.25C10.654 31.725 12.0124 33.1042 13.5186 34.6333C15.9707 37.1208 18.8061 40 25.002 40C31.6686 40 35.8353 36.6667 37.502 30C35.002 33.3333 32.0853 34.5833 28.752 33.75C26.8499 33.275 25.4915 31.8958 23.9853 30.3667C21.5353 27.8792 18.6999 25 12.502 25Z" fill="#ACCED2"/>
</g>
<defs>
<clipPath id="clip0_513_890">
<rect width="50" height="50" fill="white"/>
</clipPath>
</defs>
</svg>
