<svg width="50" height="50" viewBox="0 0 50 50" fill="none" xmlns="http://www.w3.org/2000/svg">
<g clip-path="url(#clip0_513_902)">
<path d="M50 38.725C49.2723 38.9998 48.4692 38.9989 47.742 38.7226C47.0148 38.4464 46.4138 37.9137 46.0521 37.225L38.8646 27.2854L37.8229 25.8958L29.4834 37.2375C29.1437 37.8976 28.5753 38.4114 27.8844 38.6829C27.1935 38.9544 26.4273 38.9649 25.7292 38.7125L36.475 24.2958L26.4792 11.2729C27.1979 11.0139 27.984 11.0105 28.7049 11.2632C29.4259 11.5159 30.0378 12.0094 30.4375 12.6604L37.8875 22.7229L45.3792 12.7021C45.7214 12.0537 46.29 11.5537 46.9768 11.2971C47.6635 11.0406 48.4207 11.0453 49.1042 11.3104L45.225 16.4583L39.9709 23.2979C39.8249 23.4281 39.7082 23.5876 39.6282 23.766C39.5483 23.9445 39.507 24.1378 39.507 24.3333C39.507 24.5289 39.5483 24.7222 39.6282 24.9006C39.7082 25.0791 39.8249 25.2386 39.9709 25.3687L49.9792 38.7271L50 38.725ZM0.00419397 24.1167L0.879194 19.7938C3.28336 11.2458 13.0834 7.68958 19.825 12.9812C23.7729 16.0833 24.7584 20.475 24.5646 25.425H2.32503C1.96461 34.2646 8.34378 39.6021 16.5 36.875C17.822 36.3987 19.0054 35.6021 19.9441 34.5565C20.8828 33.5109 21.5477 32.2489 21.8792 30.8833C22.3104 29.4958 23.0209 29.2583 24.325 29.6583C24.1073 31.3507 23.5088 32.9716 22.5746 34.3994C21.6404 35.8273 20.3948 37.0248 18.9313 37.9021C16.5136 39.2253 13.7393 39.7498 11.0054 39.4007C8.27146 39.0516 5.71803 37.8466 3.71044 35.9583C1.72574 33.7233 0.525938 30.9008 0.293777 27.9208C0.293777 27.4312 0.127111 26.9729 0.0146106 26.5333C0.00444923 25.7285 -0.000411984 24.9236 2.73052e-05 24.1187L0.00419397 24.1167ZM2.35211 23.5208H22.4646C22.3396 17.1125 18.2959 12.5667 12.9021 12.525C6.89794 12.4417 2.60211 16.8875 2.33753 23.4917L2.35211 23.5208Z" fill="#ACCED2"/>
</g>
<defs>
<clipPath id="clip0_513_902">
<rect width="50" height="50" fill="white"/>
</clipPath>
</defs>
</svg>
