<svg width="50" height="50" viewBox="0 0 50 50" fill="none" xmlns="http://www.w3.org/2000/svg">
<path d="M13.2436 18.75C7.74984 20.1667 4.1665 22.5938 4.1665 25.3646C4.1665 29.7542 13.3436 33.3333 24.6873 33.3333C26.229 33.3333 27.3123 33.2521 28.7498 33.1312" stroke="#ACCED2" stroke-width="4.16667" stroke-linecap="round" stroke-linejoin="round"/>
<path d="M20.4934 33.125C19.633 31.8833 18.8142 30.7646 18.0351 29.375C12.3038 19.1667 10.7684 9.02084 14.6392 6.72292C17.0351 5.27084 20.9872 7.25001 25.0018 11.4188" stroke="#ACCED2" stroke-width="4.16667" stroke-linecap="round" stroke-linejoin="round"/>
<path d="M13.3937 32.0562C11.9312 37.6562 12.227 41.8812 14.5603 43.2958C18.2749 45.5458 25.7833 39.2167 31.3166 29.1208C32.0666 27.725 32.7388 26.3514 33.3333 25" stroke="#ACCED2" stroke-width="4.16667" stroke-linecap="round" stroke-linejoin="round"/>
<path d="M25 38.5833C29.0167 42.75 32.9521 44.7292 35.3708 43.2771C39.225 40.9812 37.7062 30.8354 31.9688 20.625C31.1688 19.2146 30.35 18.1167 29.5104 16.875" stroke="#ACCED2" stroke-width="4.16667" stroke-linecap="round" stroke-linejoin="round"/>
<path d="M36.7917 31.25C42.2333 29.8188 45.8333 27.3958 45.8333 24.6333C45.8333 20.2375 36.65 16.6667 25.3229 16.6667C23.7667 16.6667 22.6854 16.7271 21.25 16.8479" stroke="#ACCED2" stroke-width="4.16667" stroke-linecap="round" stroke-linejoin="round"/>
<path d="M16.6665 25C17.2603 23.625 17.9311 22.275 18.6832 20.8792C24.1978 10.7875 31.7103 4.44167 35.4457 6.71042C37.7582 8.125 38.0748 12.3479 36.6123 17.9458M25.5415 25.0313H25.5207C25.4998 25.3021 25.2707 25.5313 24.979 25.5313C24.8395 25.5244 24.7079 25.4644 24.6111 25.3638C24.5143 25.2631 24.4596 25.1292 24.4582 24.9896C24.4582 24.6979 24.6873 24.4687 24.9582 24.4687H24.9373C25.2082 24.4479 25.4582 24.6979 25.4582 24.9687" stroke="#ACCED2" stroke-width="4.16667" stroke-linecap="round" stroke-linejoin="round"/>
</svg>
